<mxfile host="65bd71144e">
    <diagram id="3ywrnMmrrBptPfnS5Kt1" name="Page-1">
        <mxGraphModel dx="792" dy="1015" grid="1" gridSize="10" guides="1" tooltips="1" connect="1" arrows="1" fold="1" page="1" pageScale="1" pageWidth="827" pageHeight="1169" math="0" shadow="0">
            <root>
                <mxCell id="0"/>
                <mxCell id="1" parent="0"/>
                <mxCell id="2" value="" style="shape=ext;double=1;rounded=1;whiteSpace=wrap;html=1;fillColor=#4D4D4D;" parent="1" vertex="1">
                    <mxGeometry x="100" y="110" width="600" height="820" as="geometry"/>
                </mxCell>
                <mxCell id="3" value="&lt;h3&gt;&lt;font color=&quot;#000000&quot;&gt;AppendEntrysRepeatedTimer&lt;/font&gt;&lt;/h3&gt;" style="shape=ext;double=1;rounded=1;whiteSpace=wrap;html=1;fillColor=#999999;" parent="1" vertex="1">
                    <mxGeometry x="150" y="140" width="230" height="80" as="geometry"/>
                </mxCell>
                <mxCell id="4" value="&lt;h3&gt;&lt;font color=&quot;#000000&quot;&gt;RequestVoteRepeatedTimer&lt;/font&gt;&lt;/h3&gt;" style="shape=ext;double=1;rounded=1;whiteSpace=wrap;html=1;fillColor=#808080;" parent="1" vertex="1">
                    <mxGeometry x="410" y="140" width="230" height="80" as="geometry"/>
                </mxCell>
                <mxCell id="5" value="&lt;h1&gt;&lt;b&gt;&lt;font color=&quot;#000000&quot;&gt;RaftServiceImp&lt;/font&gt;&lt;/b&gt;&lt;/h1&gt;" style="shape=ext;double=1;rounded=1;whiteSpace=wrap;html=1;fillColor=#E6E6E6;" parent="1" vertex="1">
                    <mxGeometry x="160" y="250" width="480" height="100" as="geometry"/>
                </mxCell>
                <mxCell id="6" value="&lt;h1&gt;&lt;b&gt;&lt;font color=&quot;#000000&quot;&gt;RaftNode&lt;/font&gt;&lt;/b&gt;&lt;/h1&gt;" style="shape=ext;double=1;rounded=1;whiteSpace=wrap;html=1;fillColor=#CCCCCC;" parent="1" vertex="1">
                    <mxGeometry x="160" y="390" width="240" height="290" as="geometry"/>
                </mxCell>
                <mxCell id="7" value="&lt;h2&gt;&lt;b&gt;&lt;font color=&quot;#000000&quot;&gt;RaftLogMemVec&lt;/font&gt;&lt;/b&gt;&lt;/h2&gt;" style="shape=ext;double=1;rounded=1;whiteSpace=wrap;html=1;fillColor=#666666;" parent="1" vertex="1">
                    <mxGeometry x="200" y="580" width="160" height="75" as="geometry"/>
                </mxCell>
                <mxCell id="8" value="&lt;h2&gt;&lt;font color=&quot;#000000&quot;&gt;RaftStorage(RocksDB)&lt;/font&gt;&lt;/h2&gt;" style="shape=ext;double=1;rounded=1;whiteSpace=wrap;html=1;fillColor=#CCCCCC;" parent="1" vertex="1">
                    <mxGeometry x="440" y="400" width="210" height="140" as="geometry"/>
                </mxCell>
                <mxCell id="9" value="&lt;h2&gt;&lt;b&gt;&lt;font color=&quot;#000000&quot;&gt;ShaunDBSnapShot&lt;/font&gt;&lt;/b&gt;&lt;/h2&gt;" style="shape=ext;double=1;rounded=1;whiteSpace=wrap;html=1;fillColor=#E6E6E6;" parent="1" vertex="1">
                    <mxGeometry x="440" y="562.5" width="210" height="110" as="geometry"/>
                </mxCell>
                <mxCell id="11" value="" style="endArrow=none;html=1;entryX=1;entryY=0.25;entryDx=0;entryDy=0;exitX=0;exitY=0.45;exitDx=0;exitDy=0;exitPerimeter=0;" parent="1" source="8" target="6" edge="1">
                    <mxGeometry width="50" height="50" relative="1" as="geometry">
                        <mxPoint x="330" y="440" as="sourcePoint"/>
                        <mxPoint x="380" y="390" as="targetPoint"/>
                    </mxGeometry>
                </mxCell>
                <mxCell id="12" value="" style="endArrow=none;html=1;entryX=0.005;entryY=0.577;entryDx=0;entryDy=0;entryPerimeter=0;exitX=1.004;exitY=0.814;exitDx=0;exitDy=0;exitPerimeter=0;" parent="1" source="6" target="9" edge="1">
                    <mxGeometry width="50" height="50" relative="1" as="geometry">
                        <mxPoint x="330" y="440" as="sourcePoint"/>
                        <mxPoint x="380" y="390" as="targetPoint"/>
                    </mxGeometry>
                </mxCell>
                <mxCell id="13" value="" style="endArrow=classic;startArrow=classic;html=1;fontColor=#000000;exitX=0.25;exitY=1;exitDx=0;exitDy=0;entryX=0.198;entryY=0;entryDx=0;entryDy=0;entryPerimeter=0;fillColor=#1ba1e2;strokeColor=#006EAF;" parent="1" source="3" target="6" edge="1">
                    <mxGeometry width="50" height="50" relative="1" as="geometry">
                        <mxPoint x="380" y="390" as="sourcePoint"/>
                        <mxPoint x="430" y="340" as="targetPoint"/>
                    </mxGeometry>
                </mxCell>
                <mxCell id="42" value="" style="shape=ext;double=1;rounded=1;whiteSpace=wrap;html=1;fillColor=#4D4D4D;" parent="1" vertex="1">
                    <mxGeometry x="750" y="110" width="600" height="820" as="geometry"/>
                </mxCell>
                <mxCell id="43" value="&lt;h3&gt;&lt;font color=&quot;#000000&quot;&gt;AppendEntrysRepeatedTimer&lt;/font&gt;&lt;/h3&gt;" style="shape=ext;double=1;rounded=1;whiteSpace=wrap;html=1;fillColor=#999999;" parent="1" vertex="1">
                    <mxGeometry x="800" y="140" width="230" height="80" as="geometry"/>
                </mxCell>
                <mxCell id="44" value="&lt;h3&gt;&lt;font color=&quot;#000000&quot;&gt;RequestVoteRepeatedTimer&lt;/font&gt;&lt;/h3&gt;" style="shape=ext;double=1;rounded=1;whiteSpace=wrap;html=1;fillColor=#808080;" parent="1" vertex="1">
                    <mxGeometry x="1060" y="140" width="230" height="80" as="geometry"/>
                </mxCell>
                <mxCell id="45" value="&lt;h1&gt;&lt;b&gt;&lt;font color=&quot;#000000&quot;&gt;RaftServiceImp&lt;/font&gt;&lt;/b&gt;&lt;/h1&gt;" style="shape=ext;double=1;rounded=1;whiteSpace=wrap;html=1;fillColor=#E6E6E6;" parent="1" vertex="1">
                    <mxGeometry x="800" y="250" width="490" height="100" as="geometry"/>
                </mxCell>
                <mxCell id="46" value="&lt;h1&gt;&lt;b&gt;&lt;font color=&quot;#000000&quot;&gt;RaftNode&lt;/font&gt;&lt;/b&gt;&lt;/h1&gt;" style="shape=ext;double=1;rounded=1;whiteSpace=wrap;html=1;fillColor=#CCCCCC;" parent="1" vertex="1">
                    <mxGeometry x="810" y="390" width="240" height="290" as="geometry"/>
                </mxCell>
                <mxCell id="47" value="&lt;h2&gt;&lt;b&gt;&lt;font color=&quot;#000000&quot;&gt;RaftLogMemVec&lt;/font&gt;&lt;/b&gt;&lt;/h2&gt;" style="shape=ext;double=1;rounded=1;whiteSpace=wrap;html=1;fillColor=#666666;" parent="1" vertex="1">
                    <mxGeometry x="850" y="580" width="160" height="75" as="geometry"/>
                </mxCell>
                <mxCell id="48" value="&lt;h2&gt;&lt;font color=&quot;#000000&quot;&gt;RaftStorage(RocksDB)&lt;/font&gt;&lt;/h2&gt;" style="shape=ext;double=1;rounded=1;whiteSpace=wrap;html=1;fillColor=#CCCCCC;" parent="1" vertex="1">
                    <mxGeometry x="1090" y="400" width="210" height="140" as="geometry"/>
                </mxCell>
                <mxCell id="49" value="&lt;h2&gt;&lt;b&gt;&lt;font color=&quot;#000000&quot;&gt;ShaunDBSnapShot&lt;/font&gt;&lt;/b&gt;&lt;/h2&gt;" style="shape=ext;double=1;rounded=1;whiteSpace=wrap;html=1;fillColor=#E6E6E6;" parent="1" vertex="1">
                    <mxGeometry x="1090" y="562.5" width="210" height="110" as="geometry"/>
                </mxCell>
                <mxCell id="50" value="" style="endArrow=none;html=1;entryX=1;entryY=0.25;entryDx=0;entryDy=0;exitX=0;exitY=0.45;exitDx=0;exitDy=0;exitPerimeter=0;" parent="1" source="48" target="46" edge="1">
                    <mxGeometry width="50" height="50" relative="1" as="geometry">
                        <mxPoint x="980" y="440" as="sourcePoint"/>
                        <mxPoint x="1030" y="390" as="targetPoint"/>
                    </mxGeometry>
                </mxCell>
                <mxCell id="51" value="" style="endArrow=none;html=1;entryX=0.005;entryY=0.577;entryDx=0;entryDy=0;entryPerimeter=0;exitX=1.004;exitY=0.814;exitDx=0;exitDy=0;exitPerimeter=0;" parent="1" source="46" target="49" edge="1">
                    <mxGeometry width="50" height="50" relative="1" as="geometry">
                        <mxPoint x="980" y="440" as="sourcePoint"/>
                        <mxPoint x="1030" y="390" as="targetPoint"/>
                    </mxGeometry>
                </mxCell>
                <mxCell id="52" value="" style="endArrow=classic;startArrow=classic;html=1;fontColor=#000000;exitX=0.25;exitY=1;exitDx=0;exitDy=0;entryX=0.198;entryY=0;entryDx=0;entryDy=0;entryPerimeter=0;fillColor=#1ba1e2;strokeColor=#006EAF;" parent="1" source="43" target="46" edge="1">
                    <mxGeometry width="50" height="50" relative="1" as="geometry">
                        <mxPoint x="1030" y="390" as="sourcePoint"/>
                        <mxPoint x="1080" y="340" as="targetPoint"/>
                    </mxGeometry>
                </mxCell>
                <mxCell id="53" value="" style="endArrow=classic;startArrow=classic;html=1;fontColor=#000000;exitX=0.75;exitY=0;exitDx=0;exitDy=0;entryX=0.388;entryY=1.04;entryDx=0;entryDy=0;entryPerimeter=0;fillColor=#6a00ff;strokeColor=#3700CC;" parent="1" source="46" target="45" edge="1">
                    <mxGeometry width="50" height="50" relative="1" as="geometry">
                        <mxPoint x="1000" y="490" as="sourcePoint"/>
                        <mxPoint x="1050" y="440" as="targetPoint"/>
                    </mxGeometry>
                </mxCell>
                <mxCell id="55" value="" style="shape=ext;double=1;rounded=1;whiteSpace=wrap;html=1;fillColor=#4D4D4D;" parent="1" vertex="1">
                    <mxGeometry x="1400" y="110" width="600" height="820" as="geometry"/>
                </mxCell>
                <mxCell id="56" value="&lt;h3&gt;&lt;font color=&quot;#000000&quot;&gt;AppendEntrysRepeatedTimer&lt;/font&gt;&lt;/h3&gt;" style="shape=ext;double=1;rounded=1;whiteSpace=wrap;html=1;fillColor=#999999;" parent="1" vertex="1">
                    <mxGeometry x="1450" y="140" width="230" height="80" as="geometry"/>
                </mxCell>
                <mxCell id="57" value="&lt;h3&gt;&lt;font color=&quot;#000000&quot;&gt;RequestVoteRepeatedTimer&lt;/font&gt;&lt;/h3&gt;" style="shape=ext;double=1;rounded=1;whiteSpace=wrap;html=1;fillColor=#808080;" parent="1" vertex="1">
                    <mxGeometry x="1710" y="140" width="230" height="80" as="geometry"/>
                </mxCell>
                <mxCell id="58" value="&lt;h1&gt;&lt;b&gt;&lt;font color=&quot;#000000&quot;&gt;RaftServiceImp&lt;/font&gt;&lt;/b&gt;&lt;/h1&gt;" style="shape=ext;double=1;rounded=1;whiteSpace=wrap;html=1;fillColor=#E6E6E6;" parent="1" vertex="1">
                    <mxGeometry x="1450" y="250" width="490" height="100" as="geometry"/>
                </mxCell>
                <mxCell id="59" value="&lt;h1&gt;&lt;b&gt;&lt;font color=&quot;#000000&quot;&gt;RaftNode&lt;/font&gt;&lt;/b&gt;&lt;/h1&gt;" style="shape=ext;double=1;rounded=1;whiteSpace=wrap;html=1;fillColor=#CCCCCC;" parent="1" vertex="1">
                    <mxGeometry x="1460" y="390" width="240" height="290" as="geometry"/>
                </mxCell>
                <mxCell id="60" value="&lt;h2&gt;&lt;b&gt;&lt;font color=&quot;#000000&quot;&gt;RaftLogMemVec&lt;/font&gt;&lt;/b&gt;&lt;/h2&gt;" style="shape=ext;double=1;rounded=1;whiteSpace=wrap;html=1;fillColor=#666666;" parent="1" vertex="1">
                    <mxGeometry x="1500" y="580" width="160" height="75" as="geometry"/>
                </mxCell>
                <mxCell id="61" value="&lt;h2&gt;&lt;font color=&quot;#000000&quot;&gt;RaftStorage(RocksDB)&lt;/font&gt;&lt;/h2&gt;" style="shape=ext;double=1;rounded=1;whiteSpace=wrap;html=1;fillColor=#CCCCCC;" parent="1" vertex="1">
                    <mxGeometry x="1740" y="400" width="210" height="140" as="geometry"/>
                </mxCell>
                <mxCell id="62" value="&lt;h2&gt;&lt;b&gt;&lt;font color=&quot;#000000&quot;&gt;ShaunDBSnapShot&lt;/font&gt;&lt;/b&gt;&lt;/h2&gt;" style="shape=ext;double=1;rounded=1;whiteSpace=wrap;html=1;fillColor=#E6E6E6;" parent="1" vertex="1">
                    <mxGeometry x="1740" y="562.5" width="210" height="110" as="geometry"/>
                </mxCell>
                <mxCell id="63" value="" style="endArrow=none;html=1;entryX=1;entryY=0.25;entryDx=0;entryDy=0;exitX=0;exitY=0.45;exitDx=0;exitDy=0;exitPerimeter=0;" parent="1" source="61" target="59" edge="1">
                    <mxGeometry width="50" height="50" relative="1" as="geometry">
                        <mxPoint x="1630" y="440" as="sourcePoint"/>
                        <mxPoint x="1680" y="390" as="targetPoint"/>
                    </mxGeometry>
                </mxCell>
                <mxCell id="64" value="" style="endArrow=none;html=1;entryX=0.005;entryY=0.577;entryDx=0;entryDy=0;entryPerimeter=0;exitX=1.004;exitY=0.814;exitDx=0;exitDy=0;exitPerimeter=0;" parent="1" source="59" target="62" edge="1">
                    <mxGeometry width="50" height="50" relative="1" as="geometry">
                        <mxPoint x="1630" y="440" as="sourcePoint"/>
                        <mxPoint x="1680" y="390" as="targetPoint"/>
                    </mxGeometry>
                </mxCell>
                <mxCell id="65" value="" style="endArrow=classic;startArrow=classic;html=1;fontColor=#000000;exitX=0.25;exitY=1;exitDx=0;exitDy=0;entryX=0.198;entryY=0;entryDx=0;entryDy=0;entryPerimeter=0;fillColor=#1ba1e2;strokeColor=#006EAF;" parent="1" source="56" target="59" edge="1">
                    <mxGeometry width="50" height="50" relative="1" as="geometry">
                        <mxPoint x="1680" y="390" as="sourcePoint"/>
                        <mxPoint x="1730" y="340" as="targetPoint"/>
                    </mxGeometry>
                </mxCell>
                <mxCell id="66" value="" style="endArrow=classic;startArrow=classic;html=1;fontColor=#000000;exitX=0.75;exitY=0;exitDx=0;exitDy=0;entryX=0.388;entryY=1.04;entryDx=0;entryDy=0;entryPerimeter=0;fillColor=#6a00ff;strokeColor=#3700CC;" parent="1" source="59" target="58" edge="1">
                    <mxGeometry width="50" height="50" relative="1" as="geometry">
                        <mxPoint x="1650" y="490" as="sourcePoint"/>
                        <mxPoint x="1700" y="440" as="targetPoint"/>
                    </mxGeometry>
                </mxCell>
                <mxCell id="67" value="" style="shape=flexArrow;endArrow=classic;startArrow=classic;html=1;strokeColor=#000000;fontColor=#000000;fillColor=#CCCCFF;gradientColor=none;exitX=1;exitY=0.5;exitDx=0;exitDy=0;entryX=0;entryY=0.5;entryDx=0;entryDy=0;" parent="1" source="5" target="45" edge="1">
                    <mxGeometry width="100" height="100" relative="1" as="geometry">
                        <mxPoint x="680" y="560" as="sourcePoint"/>
                        <mxPoint x="780" y="460" as="targetPoint"/>
                    </mxGeometry>
                </mxCell>
                <mxCell id="69" value="" style="shape=flexArrow;endArrow=classic;startArrow=classic;html=1;strokeColor=#000000;fontColor=#000000;fillColor=#CCCCFF;gradientColor=none;exitX=1;exitY=0.5;exitDx=0;exitDy=0;entryX=0;entryY=0.5;entryDx=0;entryDy=0;" parent="1" edge="1">
                    <mxGeometry width="100" height="100" relative="1" as="geometry">
                        <mxPoint x="1290" y="299.5" as="sourcePoint"/>
                        <mxPoint x="1450" y="299.5" as="targetPoint"/>
                    </mxGeometry>
                </mxCell>
                <mxCell id="70" value="&lt;h1&gt;&lt;span style=&quot;background-color: rgb(255, 153, 204);&quot;&gt;gRPC&lt;/span&gt;&lt;/h1&gt;" style="rounded=1;whiteSpace=wrap;html=1;fontColor=#000000;fillColor=#FF99CC;strokeColor=#102175;" parent="1" vertex="1">
                    <mxGeometry x="660" y="220" width="120" height="60" as="geometry"/>
                </mxCell>
                <mxCell id="71" value="&lt;h1&gt;&lt;span style=&quot;background-color: rgb(255, 153, 204);&quot;&gt;gRPC&lt;/span&gt;&lt;/h1&gt;" style="rounded=1;whiteSpace=wrap;html=1;fontColor=#000000;fillColor=#ff99e4;" parent="1" vertex="1">
                    <mxGeometry x="1310" y="210" width="120" height="60" as="geometry"/>
                </mxCell>
                <mxCell id="73" style="edgeStyle=none;html=1;strokeColor=#000000;fontColor=#000000;fillColor=#CCCCFF;gradientColor=none;" parent="1" source="42" target="42" edge="1">
                    <mxGeometry relative="1" as="geometry"/>
                </mxCell>
                <mxCell id="77" value="" style="endArrow=classic;startArrow=classic;html=1;fontColor=#000000;exitX=0.354;exitY=1;exitDx=0;exitDy=0;fillColor=#6a00ff;strokeColor=#3700CC;exitPerimeter=0;" parent="1" source="5" edge="1">
                    <mxGeometry width="50" height="50" relative="1" as="geometry">
                        <mxPoint x="1000" y="400" as="sourcePoint"/>
                        <mxPoint x="330" y="390" as="targetPoint"/>
                    </mxGeometry>
                </mxCell>
                <mxCell id="85" value="" style="shape=flexArrow;endArrow=classic;startArrow=classic;html=1;strokeColor=#000000;fontColor=none;fillColor=#FFFFCC;gradientColor=none;entryX=0.54;entryY=1.03;entryDx=0;entryDy=0;entryPerimeter=0;exitX=0.536;exitY=-0.007;exitDx=0;exitDy=0;exitPerimeter=0;" parent="1" target="5" edge="1">
                    <mxGeometry width="100" height="100" relative="1" as="geometry">
                        <mxPoint x="418" y="749.02" as="sourcePoint"/>
                        <mxPoint x="630" y="570" as="targetPoint"/>
                    </mxGeometry>
                </mxCell>
                <mxCell id="86" value="" style="shape=flexArrow;endArrow=classic;startArrow=classic;html=1;strokeColor=#000000;fontColor=none;fillColor=#FFFFCC;gradientColor=none;entryX=0.54;entryY=1.03;entryDx=0;entryDy=0;entryPerimeter=0;exitX=0.536;exitY=-0.007;exitDx=0;exitDy=0;exitPerimeter=0;" parent="1" edge="1">
                    <mxGeometry width="100" height="100" relative="1" as="geometry">
                        <mxPoint x="1070" y="746.02" as="sourcePoint"/>
                        <mxPoint x="1071.2" y="350" as="targetPoint"/>
                    </mxGeometry>
                </mxCell>
                <mxCell id="87" value="" style="shape=flexArrow;endArrow=classic;startArrow=classic;html=1;strokeColor=#000000;fontColor=none;fillColor=#FFFFCC;gradientColor=none;entryX=0.54;entryY=1.03;entryDx=0;entryDy=0;entryPerimeter=0;exitX=0.536;exitY=-0.007;exitDx=0;exitDy=0;exitPerimeter=0;" parent="1" edge="1">
                    <mxGeometry width="100" height="100" relative="1" as="geometry">
                        <mxPoint x="1720" y="746.02" as="sourcePoint"/>
                        <mxPoint x="1721.2" y="350" as="targetPoint"/>
                    </mxGeometry>
                </mxCell>
                <mxCell id="89" value="&lt;h1&gt;ShaunDB::db&lt;/h1&gt;" style="shape=ext;double=1;rounded=1;whiteSpace=wrap;html=1;labelBackgroundColor=none;strokeColor=none;fontColor=#000000;fillColor=#B3B3B3;" vertex="1" parent="1">
                    <mxGeometry x="170" y="750" width="480" height="150" as="geometry"/>
                </mxCell>
                <mxCell id="90" value="&lt;h1&gt;ShaunDB::db&lt;/h1&gt;" style="shape=ext;double=1;rounded=1;whiteSpace=wrap;html=1;labelBackgroundColor=none;strokeColor=none;fontColor=#000000;fillColor=#B3B3B3;" vertex="1" parent="1">
                    <mxGeometry x="800" y="750" width="490" height="150" as="geometry"/>
                </mxCell>
                <mxCell id="91" value="&lt;h1&gt;ShaunDB::db&lt;/h1&gt;" style="shape=ext;double=1;rounded=1;whiteSpace=wrap;html=1;labelBackgroundColor=none;strokeColor=none;fontColor=#000000;fillColor=#B3B3B3;" vertex="1" parent="1">
                    <mxGeometry x="1470" y="750" width="480" height="150" as="geometry"/>
                </mxCell>
            </root>
        </mxGraphModel>
    </diagram>
</mxfile>